<svg
  width="20"
  height="20"
  viewBox="0 0 30 30"
  fill="none"
  xmlns="http://www.w3.org/2000/svg"
>
  <g>
    <path
      d="M14.9989 0C6.71573 0 0 6.71574 0 14.9989C0 23.282 6.71573 29.9977 14.9989 29.9977C23.282 29.9977 29.9977 23.282 29.9977 14.9989C30 6.71574 23.2843 0 14.9989 0ZM14.9851 2.07307C22.1402 2.07307 27.9407 7.87354 27.9407 15.0286C27.9407 22.1837 22.1402 27.9841 14.9851 27.9841C7.83006 27.9841 2.02959 22.1837 2.02959 15.0286C2.02959 7.87354 7.83006 2.07307 14.9851 2.07307Z"
      fill="#425DF9"
    />
    <path
      d="M14.9852 4.21741C9.01544 4.21741 4.17371 9.05686 4.17371 15.0289C4.17371 20.9987 9.01315 25.8405 14.9829 25.8405C20.9527 25.8405 25.7945 21.001 25.7945 15.0289C25.7968 9.05914 20.9573 4.21741 14.9852 4.21741ZM14.8983 6.35912C19.6645 6.35912 23.5292 10.2238 23.5292 14.99C23.5292 19.7563 19.6645 23.621 14.8983 23.621C10.1321 23.621 6.26737 19.7563 6.26737 14.99C6.26737 10.2238 10.1321 6.36141 14.8983 6.35912Z"
      fill="#425DF9"
    />
    <path
      d="M14.8982 8.57364C11.3538 8.57364 8.47989 11.4476 8.48218 14.9919C8.48218 18.5363 11.3561 21.4079 14.8982 21.4079C18.4425 21.4079 21.3164 18.534 21.3164 14.9919C21.3164 11.4476 18.4425 8.57364 14.8982 8.57364ZM14.9027 10.6742C17.2801 10.6742 19.209 12.6008 19.209 14.9805C19.209 17.3579 17.2824 19.2868 14.9027 19.2868C12.5253 19.2868 10.5964 17.3602 10.5964 14.9805C10.5964 12.6031 12.5253 10.6742 14.9027 10.6742Z"
      fill="#425DF9"
    />
    <path
      d="M10.5964 15.1203H8.48218V23.3508H10.5964V15.1203Z"
      fill="#425DF9"
    />
    <path
      d="M14.9073 16.7148C15.8475 16.7148 16.6097 15.9526 16.6097 15.0124C16.6097 14.0722 15.8475 13.31 14.9073 13.31C13.9671 13.31 13.205 14.0722 13.205 15.0124C13.205 15.9526 13.9671 16.7148 14.9073 16.7148Z"
      fill="#425DF9"
    />
  </g>
</svg>
